<svg xmlns="http://www.w3.org/2000/svg" viewBox="0 0 100 100">
  <defs>
    <linearGradient id="grad1" x1="0%" y1="0%" x2="100%" y2="100%">
      <stop offset="0%" style="stop-color:#fbbf24;stop-opacity:1" />
      <stop offset="100%" style="stop-color:#f97316;stop-opacity:1" />
    </linearGradient>
  </defs>
  <circle cx="50" cy="50" r="45" fill="url(#grad1)"/>
  <path d="M 50 25 C 40 25 32 33 32 43 C 32 50 36 56 42 59 L 42 68 C 42 70 43.5 71.5 45.5 71.5 L 54.5 71.5 C 56.5 71.5 58 70 58 68 L 58 59 C 64 56 68 50 68 43 C 68 33 60 25 50 25 Z M 44 75 L 56 75 L 56 77 L 44 77 Z M 44 79 L 56 79 L 56 81 C 56 82.5 54.5 84 53 84 L 47 84 C 45.5 84 44 82.5 44 81 Z" fill="white"/>
</svg>
